<svg fill="none" height="432" viewBox="0 0 432 432" width="432" xmlns="http://www.w3.org/2000/svg" xmlns:xlink="http://www.w3.org/1999/xlink"><linearGradient id="a" gradientUnits="userSpaceOnUse" x1="-8.73499" x2="393.32" y1="-.730006" y2="369.75"><stop offset="0" stop-color="#fff"/><stop offset=".677083" stop-color="#fff" stop-opacity="0"/></linearGradient><linearGradient id="b" gradientUnits="userSpaceOnUse" x1="173.563" x2="575.618" y1="-.730018" y2="369.75"><stop offset="0" stop-color="#fff"/><stop offset=".304651" stop-color="#fff" stop-opacity="0"/></linearGradient><linearGradient id="c"><stop offset="0" stop-color="#fff"/><stop offset="1" stop-color="#fff" stop-opacity="0"/></linearGradient><linearGradient id="d" gradientUnits="userSpaceOnUse" x1="216.5" x2="216.5" xlink:href="#c" y1="201.35" y2="327.65"/><linearGradient id="e" gradientUnits="userSpaceOnUse" x1="189.155" x2="189.155" xlink:href="#c" y1="201.35" y2="296.075"/><linearGradient id="f" gradientUnits="userSpaceOnUse" x1="243.845" x2="243.845" xlink:href="#c" y1="201.35" y2="296.075"/><clipPath id="g"><path d="m0 0h432v432h-432z"/></clipPath><g clip-path="url(#g)"><path d="m216.5 54 182.298 315.75h-364.5964z" fill="#0b0b0b"/><path d="m216.5 54v210.5l-182.2983 105.25z" fill="#000"/><path d="m216.5 54v210.5l-182.2983 105.25z" fill="url(#a)"/><path d="m216.5 54 182.298 315.75-182.298-105.25z" fill="#222"/><path d="m216.5 54 182.298 315.75-182.298-105.25z" fill="url(#b)" fill-opacity=".6"/><path d="m216.5 201.35 54.689 94.725h-109.379z" fill="#7d7d7d"/><path d="m216.5 201.35 54.689 94.725h-109.379z" fill="url(#d)"/><path d="m216.5 201.35v63.15l-54.69 31.575z" fill="#f4f4f4"/><path d="m216.5 201.35v63.15l-54.69 31.575z" fill="url(#e)"/><path d="m216.5 201.35 54.689 94.725-54.689-31.575z" fill="#b9b9b9"/><path d="m216.5 201.35 54.689 94.725-54.689-31.575z" fill="url(#f)"/></g></svg>