<svg width="144" height="144" viewBox="0 0 144 144" fill="none" xmlns="http://www.w3.org/2000/svg">
<g clip-path="url(#clip0)">
<path d="M72.1667 18L132.933 123.25H11.4006L72.1667 18Z" fill="#0B0B0B"/>
<path d="M72.1667 18V88.1667L11.4006 123.25L72.1667 18Z" fill="black"/>
<path d="M72.1667 18V88.1667L11.4006 123.25L72.1667 18Z" fill="url(#paint0_linear)"/>
<path d="M72.1667 18L132.933 123.25L72.1667 88.1667V18Z" fill="#222222"/>
<path d="M72.1667 18L132.933 123.25L72.1667 88.1667V18Z" fill="url(#paint1_linear)" fill-opacity="0.6"/>
<path d="M72.1667 67.1167L90.3965 98.6917H53.9369L72.1667 67.1167Z" fill="#7D7D7D"/>
<path d="M72.1667 67.1167L90.3965 98.6917H53.9369L72.1667 67.1167Z" fill="url(#paint2_linear)"/>
<path d="M72.1667 67.1167V88.1667L53.9369 98.6917L72.1667 67.1167Z" fill="#F4F4F4"/>
<path d="M72.1667 67.1167V88.1667L53.9369 98.6917L72.1667 67.1167Z" fill="url(#paint3_linear)"/>
<path d="M72.1667 67.1167L90.3965 98.6917L72.1667 88.1667V67.1167Z" fill="#B9B9B9"/>
<path d="M72.1667 67.1167L90.3965 98.6917L72.1667 88.1667V67.1167Z" fill="url(#paint4_linear)"/>
</g>
<defs>
<linearGradient id="paint0_linear" x1="-2.91164" y1="-0.243335" x2="131.107" y2="123.25" gradientUnits="userSpaceOnUse">
<stop stop-color="white"/>
<stop offset="0.677083" stop-color="white" stop-opacity="0"/>
</linearGradient>
<linearGradient id="paint1_linear" x1="57.8545" y1="-0.243339" x2="191.873" y2="123.25" gradientUnits="userSpaceOnUse">
<stop stop-color="white"/>
<stop offset="0.304651" stop-color="white" stop-opacity="0"/>
</linearGradient>
<linearGradient id="paint2_linear" x1="72.1667" y1="67.1167" x2="72.1667" y2="109.217" gradientUnits="userSpaceOnUse">
<stop stop-color="white"/>
<stop offset="1" stop-color="white" stop-opacity="0"/>
</linearGradient>
<linearGradient id="paint3_linear" x1="63.0518" y1="67.1167" x2="63.0518" y2="98.6917" gradientUnits="userSpaceOnUse">
<stop stop-color="white"/>
<stop offset="1" stop-color="white" stop-opacity="0"/>
</linearGradient>
<linearGradient id="paint4_linear" x1="81.2816" y1="67.1167" x2="81.2816" y2="98.6917" gradientUnits="userSpaceOnUse">
<stop stop-color="white"/>
<stop offset="1" stop-color="white" stop-opacity="0"/>
</linearGradient>
<clipPath id="clip0">
<rect width="144" height="144" fill="white"/>
</clipPath>
</defs>
</svg>
