<svg width="512" height="512" viewBox="0 0 512 512" fill="none" xmlns="http://www.w3.org/2000/svg">
<g clip-path="url(#clip0)">
<path d="M256.593 64L472.65 438.222H40.5353L256.593 64Z" fill="#0B0B0B"/>
<path d="M256.593 64V313.481L40.5353 438.222L256.593 64Z" fill="black"/>
<path d="M256.593 64V313.481L40.5353 438.222L256.593 64Z" fill="url(#paint0_linear)"/>
<path d="M256.593 64L472.65 438.222L256.593 313.481V64Z" fill="#222222"/>
<path d="M256.593 64L472.65 438.222L256.593 313.481V64Z" fill="url(#paint1_linear)" fill-opacity="0.6"/>
<path d="M256.593 238.637L321.41 350.904H191.775L256.593 238.637Z" fill="#7D7D7D"/>
<path d="M256.593 238.637L321.41 350.904H191.775L256.593 238.637Z" fill="url(#paint2_linear)"/>
<path d="M256.593 238.637V313.481L191.775 350.904L256.593 238.637Z" fill="#F4F4F4"/>
<path d="M256.593 238.637V313.481L191.775 350.904L256.593 238.637Z" fill="url(#paint3_linear)"/>
<path d="M256.593 238.637L321.41 350.904L256.593 313.481V238.637Z" fill="#B9B9B9"/>
<path d="M256.593 238.637L321.41 350.904L256.593 313.481V238.637Z" fill="url(#paint4_linear)"/>
</g>
<defs>
<linearGradient id="paint0_linear" x1="-10.3525" y1="-0.865194" x2="466.157" y2="438.222" gradientUnits="userSpaceOnUse">
<stop stop-color="white"/>
<stop offset="0.677083" stop-color="white" stop-opacity="0"/>
</linearGradient>
<linearGradient id="paint1_linear" x1="205.705" y1="-0.865208" x2="682.214" y2="438.222" gradientUnits="userSpaceOnUse">
<stop stop-color="white"/>
<stop offset="0.304651" stop-color="white" stop-opacity="0"/>
</linearGradient>
<linearGradient id="paint2_linear" x1="256.593" y1="238.637" x2="256.593" y2="388.326" gradientUnits="userSpaceOnUse">
<stop stop-color="white"/>
<stop offset="1" stop-color="white" stop-opacity="0"/>
</linearGradient>
<linearGradient id="paint3_linear" x1="224.184" y1="238.637" x2="224.184" y2="350.904" gradientUnits="userSpaceOnUse">
<stop stop-color="white"/>
<stop offset="1" stop-color="white" stop-opacity="0"/>
</linearGradient>
<linearGradient id="paint4_linear" x1="289.001" y1="238.637" x2="289.001" y2="350.904" gradientUnits="userSpaceOnUse">
<stop stop-color="white"/>
<stop offset="1" stop-color="white" stop-opacity="0"/>
</linearGradient>
<clipPath id="clip0">
<rect width="512" height="512" fill="white"/>
</clipPath>
</defs>
</svg>
