<svg width="192" height="192" viewBox="0 0 192 192" fill="none" xmlns="http://www.w3.org/2000/svg">
<g clip-path="url(#clip0)">
<path d="M96.2222 24L177.244 164.333H15.2008L96.2222 24Z" fill="#0B0B0B"/>
<path d="M96.2222 24V117.556L15.2007 164.333L96.2222 24Z" fill="black"/>
<path d="M96.2222 24V117.556L15.2007 164.333L96.2222 24Z" fill="url(#paint0_linear)"/>
<path d="M96.2222 24L177.244 164.333L96.2222 117.556V24Z" fill="#222222"/>
<path d="M96.2222 24L177.244 164.333L96.2222 117.556V24Z" fill="url(#paint1_linear)" fill-opacity="0.6"/>
<path d="M96.2222 89.4889L120.529 131.589H71.9158L96.2222 89.4889Z" fill="#7D7D7D"/>
<path d="M96.2222 89.4889L120.529 131.589H71.9158L96.2222 89.4889Z" fill="url(#paint2_linear)"/>
<path d="M96.2222 89.4889V117.556L71.9158 131.589L96.2222 89.4889Z" fill="#F4F4F4"/>
<path d="M96.2222 89.4889V117.556L71.9158 131.589L96.2222 89.4889Z" fill="url(#paint3_linear)"/>
<path d="M96.2222 89.4889L120.529 131.589L96.2222 117.556V89.4889Z" fill="#B9B9B9"/>
<path d="M96.2222 89.4889L120.529 131.589L96.2222 117.556V89.4889Z" fill="url(#paint4_linear)"/>
</g>
<defs>
<linearGradient id="paint0_linear" x1="-3.88221" y1="-0.324449" x2="174.809" y2="164.333" gradientUnits="userSpaceOnUse">
<stop stop-color="white"/>
<stop offset="0.677083" stop-color="white" stop-opacity="0"/>
</linearGradient>
<linearGradient id="paint1_linear" x1="77.1393" y1="-0.324454" x2="255.83" y2="164.333" gradientUnits="userSpaceOnUse">
<stop stop-color="white"/>
<stop offset="0.304651" stop-color="white" stop-opacity="0"/>
</linearGradient>
<linearGradient id="paint2_linear" x1="96.2222" y1="89.4889" x2="96.2222" y2="145.622" gradientUnits="userSpaceOnUse">
<stop stop-color="white"/>
<stop offset="1" stop-color="white" stop-opacity="0"/>
</linearGradient>
<linearGradient id="paint3_linear" x1="84.069" y1="89.4889" x2="84.069" y2="131.589" gradientUnits="userSpaceOnUse">
<stop stop-color="white"/>
<stop offset="1" stop-color="white" stop-opacity="0"/>
</linearGradient>
<linearGradient id="paint4_linear" x1="108.375" y1="89.4889" x2="108.375" y2="131.589" gradientUnits="userSpaceOnUse">
<stop stop-color="white"/>
<stop offset="1" stop-color="white" stop-opacity="0"/>
</linearGradient>
<clipPath id="clip0">
<rect width="192" height="192" fill="white"/>
</clipPath>
</defs>
</svg>
